mtllib Crab_Projectile.mtl
o Crab_Projectile
v 0.0000000 0.1750000 0.0000000
v 0.0000000 0.1750000 0.0000000
v 0.0000000 0.1750000 0.0000000
v 0.0000000 0.1750000 0.0000000
v 0.0000000 0.1750000 0.0000000
v -0.0000000 0.1750000 0.0000000
v -0.0000000 0.1750000 0.0000000
v -0.0000000 0.1750000 0.0000000
v -0.0000000 0.1750000 0.0000000
v -0.0000000 0.1750000 -0.0000000
v -0.0000000 0.1750000 -0.0000000
v -0.0000000 0.1750000 -0.0000000
v -0.0000000 0.1750000 -0.0000000
v 0.0000000 0.1750000 -0.0000000
v 0.0000000 0.1750000 -0.0000000
v 0.0000000 0.1750000 -0.0000000
v 0.0000000 0.1750000 -0.0000000
v 0.0540780 0.1664349 0.0000000
v 0.0499615 0.1664349 0.0206947
v 0.0382389 0.1664349 0.0382389
v 0.0206947 0.1664349 0.0499615
v 0.0000000 0.1664349 0.0540780
v -0.0206947 0.1664349 0.0499615
v -0.0382389 0.1664349 0.0382389
v -0.0499615 0.1664349 0.0206947
v -0.0540780 0.1664349 0.0000000
v -0.0499615 0.1664349 -0.0206947
v -0.0382389 0.1664349 -0.0382389
v -0.0206947 0.1664349 -0.0499615
v -0.0000000 0.1664349 -0.0540780
v 0.0206947 0.1664349 -0.0499615
v 0.0382389 0.1664349 -0.0382389
v 0.0499615 0.1664349 -0.0206947
v 0.0540780 0.1664349 -0.0000000
v 0.1028624 0.1415780 0.0000000
v 0.0950325 0.1415780 0.0393637
v 0.0727347 0.1415780 0.0727347
v 0.0393637 0.1415780 0.0950325
v 0.0000000 0.1415780 0.1028624
v -0.0393637 0.1415780 0.0950325
v -0.0727347 0.1415780 0.0727347
v -0.0950325 0.1415780 0.0393637
v -0.1028624 0.1415780 0.0000000
v -0.0950325 0.1415780 -0.0393637
v -0.0727347 0.1415780 -0.0727347
v -0.0393637 0.1415780 -0.0950325
v -0.0000000 0.1415780 -0.1028624
v 0.0393637 0.1415780 -0.0950325
v 0.0727347 0.1415780 -0.0727347
v 0.0950325 0.1415780 -0.0393637
v 0.1028624 0.1415780 -0.0000000
v 0.1415780 0.1028624 0.0000000
v 0.1308010 0.1028624 0.0541795
v 0.1001107 0.1028624 0.1001107
v 0.0541795 0.1028624 0.1308010
v 0.0000000 0.1028624 0.1415780
v -0.0541795 0.1028624 0.1308010
v -0.1001107 0.1028624 0.1001107
v -0.1308010 0.1028624 0.0541795
v -0.1415780 0.1028624 0.0000000
v -0.1308010 0.1028624 -0.0541795
v -0.1001107 0.1028624 -0.1001107
v -0.0541795 0.1028624 -0.1308010
v -0.0000000 0.1028624 -0.1415780
v 0.0541795 0.1028624 -0.1308010
v 0.1001107 0.1028624 -0.1001107
v 0.1308010 0.1028624 -0.0541795
v 0.1415780 0.1028624 -0.0000000
v 0.1664349 0.0540780 0.0000000
v 0.1537658 0.0540780 0.0636919
v 0.1176872 0.0540780 0.1176872
v 0.0636919 0.0540780 0.1537658
v 0.0000000 0.0540780 0.1664349
v -0.0636919 0.0540780 0.1537658
v -0.1176872 0.0540780 0.1176872
v -0.1537658 0.0540780 0.0636919
v -0.1664349 0.0540780 0.0000000
v -0.1537658 0.0540780 -0.0636919
v -0.1176872 0.0540780 -0.1176872
v -0.0636919 0.0540780 -0.1537658
v -0.0000000 0.0540780 -0.1664349
v 0.0636919 0.0540780 -0.1537658
v 0.1176872 0.0540780 -0.1176872
v 0.1537658 0.0540780 -0.0636919
v 0.1664349 0.0540780 -0.0000000
v 0.1750000 0.0000000 0.0000000
v 0.1616789 0.0000000 0.0669696
v 0.1237437 0.0000000 0.1237437
v 0.0669696 0.0000000 0.1616789
v 0.0000000 0.0000000 0.1750000
v -0.0669696 0.0000000 0.1616789
v -0.1237437 0.0000000 0.1237437
v -0.1616789 0.0000000 0.0669696
v -0.1750000 0.0000000 0.0000000
v -0.1616789 0.0000000 -0.0669696
v -0.1237437 0.0000000 -0.1237437
v -0.0669696 0.0000000 -0.1616789
v -0.0000000 0.0000000 -0.1750000
v 0.0669696 0.0000000 -0.1616789
v 0.1237437 0.0000000 -0.1237437
v 0.1616789 0.0000000 -0.0669696
v 0.1750000 0.0000000 -0.0000000
v 0.1664349 -0.0540780 0.0000000
v 0.1537658 -0.0540780 0.0636919
v 0.1176872 -0.0540780 0.1176872
v 0.0636919 -0.0540780 0.1537658
v 0.0000000 -0.0540780 0.1664349
v -0.0636919 -0.0540780 0.1537658
v -0.1176872 -0.0540780 0.1176872
v -0.1537658 -0.0540780 0.0636919
v -0.1664349 -0.0540780 0.0000000
v -0.1537658 -0.0540780 -0.0636919
v -0.1176872 -0.0540780 -0.1176872
v -0.0636919 -0.0540780 -0.1537658
v -0.0000000 -0.0540780 -0.1664349
v 0.0636919 -0.0540780 -0.1537658
v 0.1176872 -0.0540780 -0.1176872
v 0.1537658 -0.0540780 -0.0636919
v 0.1664349 -0.0540780 -0.0000000
v 0.1415780 -0.1028624 0.0000000
v 0.1308010 -0.1028624 0.0541795
v 0.1001107 -0.1028624 0.1001107
v 0.0541795 -0.1028624 0.1308010
v 0.0000000 -0.1028624 0.1415780
v -0.0541795 -0.1028624 0.1308010
v -0.1001107 -0.1028624 0.1001107
v -0.1308010 -0.1028624 0.0541795
v -0.1415780 -0.1028624 0.0000000
v -0.1308010 -0.1028624 -0.0541795
v -0.1001107 -0.1028624 -0.1001107
v -0.0541795 -0.1028624 -0.1308010
v -0.0000000 -0.1028624 -0.1415780
v 0.0541795 -0.1028624 -0.1308010
v 0.1001107 -0.1028624 -0.1001107
v 0.1308010 -0.1028624 -0.0541795
v 0.1415780 -0.1028624 -0.0000000
v 0.1028624 -0.1415780 0.0000000
v 0.0950325 -0.1415780 0.0393637
v 0.0727347 -0.1415780 0.0727347
v 0.0393637 -0.1415780 0.0950325
v 0.0000000 -0.1415780 0.1028624
v -0.0393637 -0.1415780 0.0950325
v -0.0727347 -0.1415780 0.0727347
v -0.0950325 -0.1415780 0.0393637
v -0.1028624 -0.1415780 0.0000000
v -0.0950325 -0.1415780 -0.0393637
v -0.0727347 -0.1415780 -0.0727347
v -0.0393637 -0.1415780 -0.0950325
v -0.0000000 -0.1415780 -0.1028624
v 0.0393637 -0.1415780 -0.0950325
v 0.0727347 -0.1415780 -0.0727347
v 0.0950325 -0.1415780 -0.0393637
v 0.1028624 -0.1415780 -0.0000000
v 0.0540780 -0.1664349 0.0000000
v 0.0499615 -0.1664349 0.0206947
v 0.0382389 -0.1664349 0.0382389
v 0.0206947 -0.1664349 0.0499615
v 0.0000000 -0.1664349 0.0540780
v -0.0206947 -0.1664349 0.0499615
v -0.0382389 -0.1664349 0.0382389
v -0.0499615 -0.1664349 0.0206947
v -0.0540780 -0.1664349 0.0000000
v -0.0499615 -0.1664349 -0.0206947
v -0.0382389 -0.1664349 -0.0382389
v -0.0206947 -0.1664349 -0.0499615
v -0.0000000 -0.1664349 -0.0540780
v 0.0206947 -0.1664349 -0.0499615
v 0.0382389 -0.1664349 -0.0382389
v 0.0499615 -0.1664349 -0.0206947
v 0.0540780 -0.1664349 -0.0000000
v 0.0000000 -0.1750000 0.0000000
v 0.0000000 -0.1750000 0.0000000
v 0.0000000 -0.1750000 0.0000000
v 0.0000000 -0.1750000 0.0000000
v 0.0000000 -0.1750000 0.0000000
v -0.0000000 -0.1750000 0.0000000
v -0.0000000 -0.1750000 0.0000000
v -0.0000000 -0.1750000 0.0000000
v -0.0000000 -0.1750000 0.0000000
v -0.0000000 -0.1750000 -0.0000000
v -0.0000000 -0.1750000 -0.0000000
v -0.0000000 -0.1750000 -0.0000000
v -0.0000000 -0.1750000 -0.0000000
v 0.0000000 -0.1750000 -0.0000000
v 0.0000000 -0.1750000 -0.0000000
v 0.0000000 -0.1750000 -0.0000000
v 0.0000000 -0.1750000 -0.0000000
v 0.1950000 0.0000000 0.0000000
v 0.1825000 0.0216506 0.0000000
v 0.1575000 0.0216506 0.0000000
v 0.1450000 0.0000000 0.0000000
v 0.1575000 -0.0216506 0.0000000
v 0.1825000 -0.0216506 0.0000000
v 0.1950000 -0.0000000 0.0000000
v 0.1883555 0.0000000 0.0504697
v 0.1762815 0.0216506 0.0472345
v 0.1521333 0.0216506 0.0407640
v 0.1400592 0.0000000 0.0375288
v 0.1521333 -0.0216506 0.0407640
v 0.1762815 -0.0216506 0.0472345
v 0.1883555 -0.0000000 0.0504697
v 0.1688750 0.0000000 0.0975000
v 0.1580496 0.0216506 0.0912500
v 0.1363990 0.0216506 0.0787500
v 0.1255737 0.0000000 0.0725000
v 0.1363990 -0.0216506 0.0787500
v 0.1580496 -0.0216506 0.0912500
v 0.1688750 -0.0000000 0.0975000
v 0.1378858 0.0000000 0.1378858
v 0.1290470 0.0216506 0.1290470
v 0.1113693 0.0216506 0.1113693
v 0.1025305 0.0000000 0.1025305
v 0.1113693 -0.0216506 0.1113693
v 0.1290470 -0.0216506 0.1290470
v 0.1378858 -0.0000000 0.1378858
v 0.0975000 0.0000000 0.1688750
v 0.0912500 0.0216506 0.1580496
v 0.0787500 0.0216506 0.1363990
v 0.0725000 0.0000000 0.1255737
v 0.0787500 -0.0216506 0.1363990
v 0.0912500 -0.0216506 0.1580496
v 0.0975000 -0.0000000 0.1688750
v 0.0504697 0.0000000 0.1883555
v 0.0472345 0.0216506 0.1762815
v 0.0407640 0.0216506 0.1521333
v 0.0375288 0.0000000 0.1400592
v 0.0407640 -0.0216506 0.1521333
v 0.0472345 -0.0216506 0.1762815
v 0.0504697 -0.0000000 0.1883555
v 0.0000000 0.0000000 0.1950000
v 0.0000000 0.0216506 0.1825000
v 0.0000000 0.0216506 0.1575000
v 0.0000000 0.0000000 0.1450000
v 0.0000000 -0.0216506 0.1575000
v 0.0000000 -0.0216506 0.1825000
v 0.0000000 -0.0000000 0.1950000
v -0.0504697 0.0000000 0.1883555
v -0.0472345 0.0216506 0.1762815
v -0.0407640 0.0216506 0.1521333
v -0.0375288 0.0000000 0.1400592
v -0.0407640 -0.0216506 0.1521333
v -0.0472345 -0.0216506 0.1762815
v -0.0504697 -0.0000000 0.1883555
v -0.0975000 0.0000000 0.1688750
v -0.0912500 0.0216506 0.1580496
v -0.0787500 0.0216506 0.1363990
v -0.0725000 0.0000000 0.1255737
v -0.0787500 -0.0216506 0.1363990
v -0.0912500 -0.0216506 0.1580496
v -0.0975000 -0.0000000 0.1688750
v -0.1378858 0.0000000 0.1378858
v -0.1290470 0.0216506 0.1290470
v -0.1113693 0.0216506 0.1113693
v -0.1025305 0.0000000 0.1025305
v -0.1113693 -0.0216506 0.1113693
v -0.1290470 -0.0216506 0.1290470
v -0.1378858 -0.0000000 0.1378858
v -0.1688750 0.0000000 0.0975000
v -0.1580496 0.0216506 0.0912500
v -0.1363990 0.0216506 0.0787500
v -0.1255737 0.0000000 0.0725000
v -0.1363990 -0.0216506 0.0787500
v -0.1580496 -0.0216506 0.0912500
v -0.1688750 -0.0000000 0.0975000
v -0.1883555 0.0000000 0.0504697
v -0.1762815 0.0216506 0.0472345
v -0.1521333 0.0216506 0.0407640
v -0.1400592 0.0000000 0.0375288
v -0.1521333 -0.0216506 0.0407640
v -0.1762815 -0.0216506 0.0472345
v -0.1883555 -0.0000000 0.0504697
v -0.1950000 0.0000000 0.0000000
v -0.1825000 0.0216506 0.0000000
v -0.1575000 0.0216506 0.0000000
v -0.1450000 0.0000000 0.0000000
v -0.1575000 -0.0216506 0.0000000
v -0.1825000 -0.0216506 0.0000000
v -0.1950000 -0.0000000 0.0000000
v -0.1883555 0.0000000 -0.0504697
v -0.1762815 0.0216506 -0.0472345
v -0.1521333 0.0216506 -0.0407640
v -0.1400592 0.0000000 -0.0375288
v -0.1521333 -0.0216506 -0.0407640
v -0.1762815 -0.0216506 -0.0472345
v -0.1883555 -0.0000000 -0.0504697
v -0.1688750 0.0000000 -0.0975000
v -0.1580496 0.0216506 -0.0912500
v -0.1363990 0.0216506 -0.0787500
v -0.1255737 0.0000000 -0.0725000
v -0.1363990 -0.0216506 -0.0787500
v -0.1580496 -0.0216506 -0.0912500
v -0.1688750 -0.0000000 -0.0975000
v -0.1378858 0.0000000 -0.1378858
v -0.1290470 0.0216506 -0.1290470
v -0.1113693 0.0216506 -0.1113693
v -0.1025305 0.0000000 -0.1025305
v -0.1113693 -0.0216506 -0.1113693
v -0.1290470 -0.0216506 -0.1290470
v -0.1378858 -0.0000000 -0.1378858
v -0.0975000 0.0000000 -0.1688750
v -0.0912500 0.0216506 -0.1580496
v -0.0787500 0.0216506 -0.1363990
v -0.0725000 0.0000000 -0.1255737
v -0.0787500 -0.0216506 -0.1363990
v -0.0912500 -0.0216506 -0.1580496
v -0.0975000 -0.0000000 -0.1688750
v -0.0504697 0.0000000 -0.1883555
v -0.0472345 0.0216506 -0.1762815
v -0.0407640 0.0216506 -0.1521333
v -0.0375288 0.0000000 -0.1400592
v -0.0407640 -0.0216506 -0.1521333
v -0.0472345 -0.0216506 -0.1762815
v -0.0504697 -0.0000000 -0.1883555
v -0.0000000 0.0000000 -0.1950000
v -0.0000000 0.0216506 -0.1825000
v -0.0000000 0.0216506 -0.1575000
v -0.0000000 0.0000000 -0.1450000
v -0.0000000 -0.0216506 -0.1575000
v -0.0000000 -0.0216506 -0.1825000
v -0.0000000 -0.0000000 -0.1950000
v 0.0504697 0.0000000 -0.1883555
v 0.0472345 0.0216506 -0.1762815
v 0.0407640 0.0216506 -0.1521333
v 0.0375288 0.0000000 -0.1400592
v 0.0407640 -0.0216506 -0.1521333
v 0.0472345 -0.0216506 -0.1762815
v 0.0504697 -0.0000000 -0.1883555
v 0.0975000 0.0000000 -0.1688750
v 0.0912500 0.0216506 -0.1580496
v 0.0787500 0.0216506 -0.1363990
v 0.0725000 0.0000000 -0.1255737
v 0.0787500 -0.0216506 -0.1363990
v 0.0912500 -0.0216506 -0.1580496
v 0.0975000 -0.0000000 -0.1688750
v 0.1378858 0.0000000 -0.1378858
v 0.1290470 0.0216506 -0.1290470
v 0.1113693 0.0216506 -0.1113693
v 0.1025305 0.0000000 -0.1025305
v 0.1113693 -0.0216506 -0.1113693
v 0.1290470 -0.0216506 -0.1290470
v 0.1378858 -0.0000000 -0.1378858
v 0.1688750 0.0000000 -0.0975000
v 0.1580496 0.0216506 -0.0912500
v 0.1363990 0.0216506 -0.0787500
v 0.1255737 0.0000000 -0.0725000
v 0.1363990 -0.0216506 -0.0787500
v 0.1580496 -0.0216506 -0.0912500
v 0.1688750 -0.0000000 -0.0975000
v 0.1883555 0.0000000 -0.0504697
v 0.1762815 0.0216506 -0.0472345
v 0.1521333 0.0216506 -0.0407640
v 0.1400592 0.0000000 -0.0375288
v 0.1521333 -0.0216506 -0.0407640
v 0.1762815 -0.0216506 -0.0472345
v 0.1883555 -0.0000000 -0.0504697
v 0.1950000 0.0000000 -0.0000000
v 0.1825000 0.0216506 -0.0000000
v 0.1575000 0.0216506 -0.0000000
v 0.1450000 0.0000000 -0.0000000
v 0.1575000 -0.0216506 -0.0000000
v 0.1825000 -0.0216506 -0.0000000
v 0.1950000 -0.0000000 -0.0000000
v 0.1950000 -0.0000000 0.0000000
v 0.1825000 -0.0000000 0.0216506
v 0.1575000 -0.0000000 0.0216506
v 0.1450000 -0.0000000 0.0000000
v 0.1575000 -0.0000000 -0.0216506
v 0.1825000 -0.0000000 -0.0216506
v 0.1950000 -0.0000000 -0.0000000
v 0.1883555 -0.0504697 0.0000000
v 0.1762815 -0.0472345 0.0216506
v 0.1521333 -0.0407640 0.0216506
v 0.1400592 -0.0375288 0.0000000
v 0.1521333 -0.0407640 -0.0216506
v 0.1762815 -0.0472345 -0.0216506
v 0.1883555 -0.0504697 -0.0000000
v 0.1688750 -0.0975000 0.0000000
v 0.1580496 -0.0912500 0.0216506
v 0.1363990 -0.0787500 0.0216506
v 0.1255737 -0.0725000 0.0000000
v 0.1363990 -0.0787500 -0.0216506
v 0.1580496 -0.0912500 -0.0216506
v 0.1688750 -0.0975000 -0.0000000
v 0.1378858 -0.1378858 0.0000000
v 0.1290470 -0.1290470 0.0216506
v 0.1113693 -0.1113693 0.0216506
v 0.1025305 -0.1025305 0.0000000
v 0.1113693 -0.1113693 -0.0216506
v 0.1290470 -0.1290470 -0.0216506
v 0.1378858 -0.1378858 -0.0000000
v 0.0975000 -0.1688750 0.0000000
v 0.0912500 -0.1580496 0.0216506
v 0.0787500 -0.1363990 0.0216506
v 0.0725000 -0.1255737 0.0000000
v 0.0787500 -0.1363990 -0.0216506
v 0.0912500 -0.1580496 -0.0216506
v 0.0975000 -0.1688750 -0.0000000
v 0.0504697 -0.1883555 0.0000000
v 0.0472345 -0.1762815 0.0216506
v 0.0407640 -0.1521333 0.0216506
v 0.0375288 -0.1400592 0.0000000
v 0.0407640 -0.1521333 -0.0216506
v 0.0472345 -0.1762815 -0.0216506
v 0.0504697 -0.1883555 -0.0000000
v 0.0000000 -0.1950000 0.0000000
v 0.0000000 -0.1825000 0.0216506
v 0.0000000 -0.1575000 0.0216506
v 0.0000000 -0.1450000 0.0000000
v 0.0000000 -0.1575000 -0.0216506
v 0.0000000 -0.1825000 -0.0216506
v 0.0000000 -0.1950000 -0.0000000
v -0.0504697 -0.1883555 0.0000000
v -0.0472345 -0.1762815 0.0216506
v -0.0407640 -0.1521333 0.0216506
v -0.0375288 -0.1400592 0.0000000
v -0.0407640 -0.1521333 -0.0216506
v -0.0472345 -0.1762815 -0.0216506
v -0.0504697 -0.1883555 -0.0000000
v -0.0975000 -0.1688750 0.0000000
v -0.0912500 -0.1580496 0.0216506
v -0.0787500 -0.1363990 0.0216506
v -0.0725000 -0.1255737 0.0000000
v -0.0787500 -0.1363990 -0.0216506
v -0.0912500 -0.1580496 -0.0216506
v -0.0975000 -0.1688750 -0.0000000
v -0.1378858 -0.1378858 0.0000000
v -0.1290470 -0.1290470 0.0216506
v -0.1113693 -0.1113693 0.0216506
v -0.1025305 -0.1025305 0.0000000
v -0.1113693 -0.1113693 -0.0216506
v -0.1290470 -0.1290470 -0.0216506
v -0.1378858 -0.1378858 -0.0000000
v -0.1688750 -0.0975000 0.0000000
v -0.1580496 -0.0912500 0.0216506
v -0.1363990 -0.0787500 0.0216506
v -0.1255737 -0.0725000 0.0000000
v -0.1363990 -0.0787500 -0.0216506
v -0.1580496 -0.0912500 -0.0216506
v -0.1688750 -0.0975000 -0.0000000
v -0.1883555 -0.0504697 0.0000000
v -0.1762815 -0.0472345 0.0216506
v -0.1521333 -0.0407640 0.0216506
v -0.1400592 -0.0375288 0.0000000
v -0.1521333 -0.0407640 -0.0216506
v -0.1762815 -0.0472345 -0.0216506
v -0.1883555 -0.0504697 -0.0000000
v -0.1950000 -0.0000000 0.0000000
v -0.1825000 -0.0000000 0.0216506
v -0.1575000 -0.0000000 0.0216506
v -0.1450000 -0.0000000 0.0000000
v -0.1575000 -0.0000000 -0.0216506
v -0.1825000 -0.0000000 -0.0216506
v -0.1950000 -0.0000000 -0.0000000
v -0.1883555 0.0504697 0.0000000
v -0.1762815 0.0472345 0.0216506
v -0.1521333 0.0407640 0.0216506
v -0.1400592 0.0375288 0.0000000
v -0.1521333 0.0407640 -0.0216506
v -0.1762815 0.0472345 -0.0216506
v -0.1883555 0.0504697 -0.0000000
v -0.1688750 0.0975000 0.0000000
v -0.1580496 0.0912500 0.0216506
v -0.1363990 0.0787500 0.0216506
v -0.1255737 0.0725000 0.0000000
v -0.1363990 0.0787500 -0.0216506
v -0.1580496 0.0912500 -0.0216506
v -0.1688750 0.0975000 -0.0000000
v -0.1378858 0.1378858 0.0000000
v -0.1290470 0.1290470 0.0216506
v -0.1113693 0.1113693 0.0216506
v -0.1025305 0.1025305 0.0000000
v -0.1113693 0.1113693 -0.0216506
v -0.1290470 0.1290470 -0.0216506
v -0.1378858 0.1378858 -0.0000000
v -0.0975000 0.1688750 0.0000000
v -0.0912500 0.1580496 0.0216506
v -0.0787500 0.1363990 0.0216506
v -0.0725000 0.1255737 0.0000000
v -0.0787500 0.1363990 -0.0216506
v -0.0912500 0.1580496 -0.0216506
v -0.0975000 0.1688750 -0.0000000
v -0.0504697 0.1883555 0.0000000
v -0.0472345 0.1762815 0.0216506
v -0.0407640 0.1521333 0.0216506
v -0.0375288 0.1400592 0.0000000
v -0.0407640 0.1521333 -0.0216506
v -0.0472345 0.1762815 -0.0216506
v -0.0504697 0.1883555 -0.0000000
v -0.0000000 0.1950000 0.0000000
v -0.0000000 0.1825000 0.0216506
v -0.0000000 0.1575000 0.0216506
v -0.0000000 0.1450000 0.0000000
v -0.0000000 0.1575000 -0.0216506
v -0.0000000 0.1825000 -0.0216506
v -0.0000000 0.1950000 -0.0000000
v 0.0504697 0.1883555 0.0000000
v 0.0472345 0.1762815 0.0216506
v 0.0407640 0.1521333 0.0216506
v 0.0375288 0.1400592 0.0000000
v 0.0407640 0.1521333 -0.0216506
v 0.0472345 0.1762815 -0.0216506
v 0.0504697 0.1883555 -0.0000000
v 0.0975000 0.1688750 0.0000000
v 0.0912500 0.1580496 0.0216506
v 0.0787500 0.1363990 0.0216506
v 0.0725000 0.1255737 0.0000000
v 0.0787500 0.1363990 -0.0216506
v 0.0912500 0.1580496 -0.0216506
v 0.0975000 0.1688750 -0.0000000
v 0.1378858 0.1378858 0.0000000
v 0.1290470 0.1290470 0.0216506
v 0.1113693 0.1113693 0.0216506
v 0.1025305 0.1025305 0.0000000
v 0.1113693 0.1113693 -0.0216506
v 0.1290470 0.1290470 -0.0216506
v 0.1378858 0.1378858 -0.0000000
v 0.1688750 0.0975000 0.0000000
v 0.1580496 0.0912500 0.0216506
v 0.1363990 0.0787500 0.0216506
v 0.1255737 0.0725000 0.0000000
v 0.1363990 0.0787500 -0.0216506
v 0.1580496 0.0912500 -0.0216506
v 0.1688750 0.0975000 -0.0000000
v 0.1883555 0.0504697 0.0000000
v 0.1762815 0.0472345 0.0216506
v 0.1521333 0.0407640 0.0216506
v 0.1400592 0.0375288 0.0000000
v 0.1521333 0.0407640 -0.0216506
v 0.1762815 0.0472345 -0.0216506
v 0.1883555 0.0504697 -0.0000000
v 0.1950000 0.0000000 0.0000000
v 0.1825000 0.0000000 0.0216506
v 0.1575000 0.0000000 0.0216506
v 0.1450000 0.0000000 0.0000000
v 0.1575000 0.0000000 -0.0216506
v 0.1825000 0.0000000 -0.0216506
v 0.1950000 0.0000000 -0.0000000
usemtl Noyau
f 1 2 18
f 2 19 18
f 2 3 19
f 3 20 19
f 3 4 20
f 4 21 20
f 4 5 21
f 5 22 21
f 5 6 22
f 6 23 22
f 6 7 23
f 7 24 23
f 7 8 24
f 8 25 24
f 8 9 25
f 9 26 25
f 9 10 26
f 10 27 26
f 10 11 27
f 11 28 27
f 11 12 28
f 12 29 28
f 12 13 29
f 13 30 29
f 13 14 30
f 14 31 30
f 14 15 31
f 15 32 31
f 15 16 32
f 16 33 32
f 16 17 33
f 17 34 33
f 18 19 35
f 19 36 35
f 19 20 36
f 20 37 36
f 20 21 37
f 21 38 37
f 21 22 38
f 22 39 38
f 22 23 39
f 23 40 39
f 23 24 40
f 24 41 40
f 24 25 41
f 25 42 41
f 25 26 42
f 26 43 42
f 26 27 43
f 27 44 43
f 27 28 44
f 28 45 44
f 28 29 45
f 29 46 45
f 29 30 46
f 30 47 46
f 30 31 47
f 31 48 47
f 31 32 48
f 32 49 48
f 32 33 49
f 33 50 49
f 33 34 50
f 34 51 50
f 35 36 52
f 36 53 52
f 36 37 53
f 37 54 53
f 37 38 54
f 38 55 54
f 38 39 55
f 39 56 55
f 39 40 56
f 40 57 56
f 40 41 57
f 41 58 57
f 41 42 58
f 42 59 58
f 42 43 59
f 43 60 59
f 43 44 60
f 44 61 60
f 44 45 61
f 45 62 61
f 45 46 62
f 46 63 62
f 46 47 63
f 47 64 63
f 47 48 64
f 48 65 64
f 48 49 65
f 49 66 65
f 49 50 66
f 50 67 66
f 50 51 67
f 51 68 67
f 52 53 69
f 53 70 69
f 53 54 70
f 54 71 70
f 54 55 71
f 55 72 71
f 55 56 72
f 56 73 72
f 56 57 73
f 57 74 73
f 57 58 74
f 58 75 74
f 58 59 75
f 59 76 75
f 59 60 76
f 60 77 76
f 60 61 77
f 61 78 77
f 61 62 78
f 62 79 78
f 62 63 79
f 63 80 79
f 63 64 80
f 64 81 80
f 64 65 81
f 65 82 81
f 65 66 82
f 66 83 82
f 66 67 83
f 67 84 83
f 67 68 84
f 68 85 84
f 69 70 86
f 70 87 86
f 70 71 87
f 71 88 87
f 71 72 88
f 72 89 88
f 72 73 89
f 73 90 89
f 73 74 90
f 74 91 90
f 74 75 91
f 75 92 91
f 75 76 92
f 76 93 92
f 76 77 93
f 77 94 93
f 77 78 94
f 78 95 94
f 78 79 95
f 79 96 95
f 79 80 96
f 80 97 96
f 80 81 97
f 81 98 97
f 81 82 98
f 82 99 98
f 82 83 99
f 83 100 99
f 83 84 100
f 84 101 100
f 84 85 101
f 85 102 101
f 86 87 103
f 87 104 103
f 87 88 104
f 88 105 104
f 88 89 105
f 89 106 105
f 89 90 106
f 90 107 106
f 90 91 107
f 91 108 107
f 91 92 108
f 92 109 108
f 92 93 109
f 93 110 109
f 93 94 110
f 94 111 110
f 94 95 111
f 95 112 111
f 95 96 112
f 96 113 112
f 96 97 113
f 97 114 113
f 97 98 114
f 98 115 114
f 98 99 115
f 99 116 115
f 99 100 116
f 100 117 116
f 100 101 117
f 101 118 117
f 101 102 118
f 102 119 118
f 103 104 120
f 104 121 120
f 104 105 121
f 105 122 121
f 105 106 122
f 106 123 122
f 106 107 123
f 107 124 123
f 107 108 124
f 108 125 124
f 108 109 125
f 109 126 125
f 109 110 126
f 110 127 126
f 110 111 127
f 111 128 127
f 111 112 128
f 112 129 128
f 112 113 129
f 113 130 129
f 113 114 130
f 114 131 130
f 114 115 131
f 115 132 131
f 115 116 132
f 116 133 132
f 116 117 133
f 117 134 133
f 117 118 134
f 118 135 134
f 118 119 135
f 119 136 135
f 120 121 137
f 121 138 137
f 121 122 138
f 122 139 138
f 122 123 139
f 123 140 139
f 123 124 140
f 124 141 140
f 124 125 141
f 125 142 141
f 125 126 142
f 126 143 142
f 126 127 143
f 127 144 143
f 127 128 144
f 128 145 144
f 128 129 145
f 129 146 145
f 129 130 146
f 130 147 146
f 130 131 147
f 131 148 147
f 131 132 148
f 132 149 148
f 132 133 149
f 133 150 149
f 133 134 150
f 134 151 150
f 134 135 151
f 135 152 151
f 135 136 152
f 136 153 152
f 137 138 154
f 138 155 154
f 138 139 155
f 139 156 155
f 139 140 156
f 140 157 156
f 140 141 157
f 141 158 157
f 141 142 158
f 142 159 158
f 142 143 159
f 143 160 159
f 143 144 160
f 144 161 160
f 144 145 161
f 145 162 161
f 145 146 162
f 146 163 162
f 146 147 163
f 147 164 163
f 147 148 164
f 148 165 164
f 148 149 165
f 149 166 165
f 149 150 166
f 150 167 166
f 150 151 167
f 151 168 167
f 151 152 168
f 152 169 168
f 152 153 169
f 153 170 169
f 154 155 171
f 155 172 171
f 155 156 172
f 156 173 172
f 156 157 173
f 157 174 173
f 157 158 174
f 158 175 174
f 158 159 175
f 159 176 175
f 159 160 176
f 160 177 176
f 160 161 177
f 161 178 177
f 161 162 178
f 162 179 178
f 162 163 179
f 163 180 179
f 163 164 180
f 164 181 180
f 164 165 181
f 165 182 181
f 165 166 182
f 166 183 182
f 166 167 183
f 167 184 183
f 167 168 184
f 168 185 184
f 168 169 185
f 169 186 185
f 169 170 186
f 170 187 186
usemtl Metal
f 188 189 195
f 189 196 195
f 189 190 196
f 190 197 196
f 190 191 197
f 191 198 197
f 191 192 198
f 192 199 198
f 192 193 199
f 193 200 199
f 193 194 200
f 194 201 200
f 195 196 202
f 196 203 202
f 196 197 203
f 197 204 203
f 197 198 204
f 198 205 204
f 198 199 205
f 199 206 205
f 199 200 206
f 200 207 206
f 200 201 207
f 201 208 207
f 202 203 209
f 203 210 209
f 203 204 210
f 204 211 210
f 204 205 211
f 205 212 211
f 205 206 212
f 206 213 212
f 206 207 213
f 207 214 213
f 207 208 214
f 208 215 214
f 209 210 216
f 210 217 216
f 210 211 217
f 211 218 217
f 211 212 218
f 212 219 218
f 212 213 219
f 213 220 219
f 213 214 220
f 214 221 220
f 214 215 221
f 215 222 221
f 216 217 223
f 217 224 223
f 217 218 224
f 218 225 224
f 218 219 225
f 219 226 225
f 219 220 226
f 220 227 226
f 220 221 227
f 221 228 227
f 221 222 228
f 222 229 228
f 223 224 230
f 224 231 230
f 224 225 231
f 225 232 231
f 225 226 232
f 226 233 232
f 226 227 233
f 227 234 233
f 227 228 234
f 228 235 234
f 228 229 235
f 229 236 235
f 230 231 237
f 231 238 237
f 231 232 238
f 232 239 238
f 232 233 239
f 233 240 239
f 233 234 240
f 234 241 240
f 234 235 241
f 235 242 241
f 235 236 242
f 236 243 242
f 237 238 244
f 238 245 244
f 238 239 245
f 239 246 245
f 239 240 246
f 240 247 246
f 240 241 247
f 241 248 247
f 241 242 248
f 242 249 248
f 242 243 249
f 243 250 249
f 244 245 251
f 245 252 251
f 245 246 252
f 246 253 252
f 246 247 253
f 247 254 253
f 247 248 254
f 248 255 254
f 248 249 255
f 249 256 255
f 249 250 256
f 250 257 256
f 251 252 258
f 252 259 258
f 252 253 259
f 253 260 259
f 253 254 260
f 254 261 260
f 254 255 261
f 255 262 261
f 255 256 262
f 256 263 262
f 256 257 263
f 257 264 263
f 258 259 265
f 259 266 265
f 259 260 266
f 260 267 266
f 260 261 267
f 261 268 267
f 261 262 268
f 262 269 268
f 262 263 269
f 263 270 269
f 263 264 270
f 264 271 270
f 265 266 272
f 266 273 272
f 266 267 273
f 267 274 273
f 267 268 274
f 268 275 274
f 268 269 275
f 269 276 275
f 269 270 276
f 270 277 276
f 270 271 277
f 271 278 277
f 272 273 279
f 273 280 279
f 273 274 280
f 274 281 280
f 274 275 281
f 275 282 281
f 275 276 282
f 276 283 282
f 276 277 283
f 277 284 283
f 277 278 284
f 278 285 284
f 279 280 286
f 280 287 286
f 280 281 287
f 281 288 287
f 281 282 288
f 282 289 288
f 282 283 289
f 283 290 289
f 283 284 290
f 284 291 290
f 284 285 291
f 285 292 291
f 286 287 293
f 287 294 293
f 287 288 294
f 288 295 294
f 288 289 295
f 289 296 295
f 289 290 296
f 290 297 296
f 290 291 297
f 291 298 297
f 291 292 298
f 292 299 298
f 293 294 300
f 294 301 300
f 294 295 301
f 295 302 301
f 295 296 302
f 296 303 302
f 296 297 303
f 297 304 303
f 297 298 304
f 298 305 304
f 298 299 305
f 299 306 305
f 300 301 307
f 301 308 307
f 301 302 308
f 302 309 308
f 302 303 309
f 303 310 309
f 303 304 310
f 304 311 310
f 304 305 311
f 305 312 311
f 305 306 312
f 306 313 312
f 307 308 314
f 308 315 314
f 308 309 315
f 309 316 315
f 309 310 316
f 310 317 316
f 310 311 317
f 311 318 317
f 311 312 318
f 312 319 318
f 312 313 319
f 313 320 319
f 314 315 321
f 315 322 321
f 315 316 322
f 316 323 322
f 316 317 323
f 317 324 323
f 317 318 324
f 318 325 324
f 318 319 325
f 319 326 325
f 319 320 326
f 320 327 326
f 321 322 328
f 322 329 328
f 322 323 329
f 323 330 329
f 323 324 330
f 324 331 330
f 324 325 331
f 325 332 331
f 325 326 332
f 326 333 332
f 326 327 333
f 327 334 333
f 328 329 335
f 329 336 335
f 329 330 336
f 330 337 336
f 330 331 337
f 331 338 337
f 331 332 338
f 332 339 338
f 332 333 339
f 333 340 339
f 333 334 340
f 334 341 340
f 335 336 342
f 336 343 342
f 336 337 343
f 337 344 343
f 337 338 344
f 338 345 344
f 338 339 345
f 339 346 345
f 339 340 346
f 340 347 346
f 340 341 347
f 341 348 347
f 342 343 349
f 343 350 349
f 343 344 350
f 344 351 350
f 344 345 351
f 345 352 351
f 345 346 352
f 346 353 352
f 346 347 353
f 347 354 353
f 347 348 354
f 348 355 354
f 349 350 356
f 350 357 356
f 350 351 357
f 351 358 357
f 351 352 358
f 352 359 358
f 352 353 359
f 353 360 359
f 353 354 360
f 354 361 360
f 354 355 361
f 355 362 361
f 363 364 370
f 364 371 370
f 364 365 371
f 365 372 371
f 365 366 372
f 366 373 372
f 366 367 373
f 367 374 373
f 367 368 374
f 368 375 374
f 368 369 375
f 369 376 375
f 370 371 377
f 371 378 377
f 371 372 378
f 372 379 378
f 372 373 379
f 373 380 379
f 373 374 380
f 374 381 380
f 374 375 381
f 375 382 381
f 375 376 382
f 376 383 382
f 377 378 384
f 378 385 384
f 378 379 385
f 379 386 385
f 379 380 386
f 380 387 386
f 380 381 387
f 381 388 387
f 381 382 388
f 382 389 388
f 382 383 389
f 383 390 389
f 384 385 391
f 385 392 391
f 385 386 392
f 386 393 392
f 386 387 393
f 387 394 393
f 387 388 394
f 388 395 394
f 388 389 395
f 389 396 395
f 389 390 396
f 390 397 396
f 391 392 398
f 392 399 398
f 392 393 399
f 393 400 399
f 393 394 400
f 394 401 400
f 394 395 401
f 395 402 401
f 395 396 402
f 396 403 402
f 396 397 403
f 397 404 403
f 398 399 405
f 399 406 405
f 399 400 406
f 400 407 406
f 400 401 407
f 401 408 407
f 401 402 408
f 402 409 408
f 402 403 409
f 403 410 409
f 403 404 410
f 404 411 410
f 405 406 412
f 406 413 412
f 406 407 413
f 407 414 413
f 407 408 414
f 408 415 414
f 408 409 415
f 409 416 415
f 409 410 416
f 410 417 416
f 410 411 417
f 411 418 417
f 412 413 419
f 413 420 419
f 413 414 420
f 414 421 420
f 414 415 421
f 415 422 421
f 415 416 422
f 416 423 422
f 416 417 423
f 417 424 423
f 417 418 424
f 418 425 424
f 419 420 426
f 420 427 426
f 420 421 427
f 421 428 427
f 421 422 428
f 422 429 428
f 422 423 429
f 423 430 429
f 423 424 430
f 424 431 430
f 424 425 431
f 425 432 431
f 426 427 433
f 427 434 433
f 427 428 434
f 428 435 434
f 428 429 435
f 429 436 435
f 429 430 436
f 430 437 436
f 430 431 437
f 431 438 437
f 431 432 438
f 432 439 438
f 433 434 440
f 434 441 440
f 434 435 441
f 435 442 441
f 435 436 442
f 436 443 442
f 436 437 443
f 437 444 443
f 437 438 444
f 438 445 444
f 438 439 445
f 439 446 445
f 440 441 447
f 441 448 447
f 441 442 448
f 442 449 448
f 442 443 449
f 443 450 449
f 443 444 450
f 444 451 450
f 444 445 451
f 445 452 451
f 445 446 452
f 446 453 452
f 447 448 454
f 448 455 454
f 448 449 455
f 449 456 455
f 449 450 456
f 450 457 456
f 450 451 457
f 451 458 457
f 451 452 458
f 452 459 458
f 452 453 459
f 453 460 459
f 454 455 461
f 455 462 461
f 455 456 462
f 456 463 462
f 456 457 463
f 457 464 463
f 457 458 464
f 458 465 464
f 458 459 465
f 459 466 465
f 459 460 466
f 460 467 466
f 461 462 468
f 462 469 468
f 462 463 469
f 463 470 469
f 463 464 470
f 464 471 470
f 464 465 471
f 465 472 471
f 465 466 472
f 466 473 472
f 466 467 473
f 467 474 473
f 468 469 475
f 469 476 475
f 469 470 476
f 470 477 476
f 470 471 477
f 471 478 477
f 471 472 478
f 472 479 478
f 472 473 479
f 473 480 479
f 473 474 480
f 474 481 480
f 475 476 482
f 476 483 482
f 476 477 483
f 477 484 483
f 477 478 484
f 478 485 484
f 478 479 485
f 479 486 485
f 479 480 486
f 480 487 486
f 480 481 487
f 481 488 487
f 482 483 489
f 483 490 489
f 483 484 490
f 484 491 490
f 484 485 491
f 485 492 491
f 485 486 492
f 486 493 492
f 486 487 493
f 487 494 493
f 487 488 494
f 488 495 494
f 489 490 496
f 490 497 496
f 490 491 497
f 491 498 497
f 491 492 498
f 492 499 498
f 492 493 499
f 493 500 499
f 493 494 500
f 494 501 500
f 494 495 501
f 495 502 501
f 496 497 503
f 497 504 503
f 497 498 504
f 498 505 504
f 498 499 505
f 499 506 505
f 499 500 506
f 500 507 506
f 500 501 507
f 501 508 507
f 501 502 508
f 502 509 508
f 503 504 510
f 504 511 510
f 504 505 511
f 505 512 511
f 505 506 512
f 506 513 512
f 506 507 513
f 507 514 513
f 507 508 514
f 508 515 514
f 508 509 515
f 509 516 515
f 510 511 517
f 511 518 517
f 511 512 518
f 512 519 518
f 512 513 519
f 513 520 519
f 513 514 520
f 514 521 520
f 514 515 521
f 515 522 521
f 515 516 522
f 516 523 522
f 517 518 524
f 518 525 524
f 518 519 525
f 519 526 525
f 519 520 526
f 520 527 526
f 520 521 527
f 521 528 527
f 521 522 528
f 522 529 528
f 522 523 529
f 523 530 529
f 524 525 531
f 525 532 531
f 525 526 532
f 526 533 532
f 526 527 533
f 527 534 533
f 527 528 534
f 528 535 534
f 528 529 535
f 529 536 535
f 529 530 536
f 530 537 536